<svg width="29" height="28" viewBox="0 0 29 28" fill="none" xmlns="http://www.w3.org/2000/svg">
<path d="M0 13.9657C0 6.25265 6.25265 0 13.9657 0H15.0343C22.7473 0 29 6.25265 29 13.9657C29 21.6787 22.7473 27.9314 15.0343 27.9314H13.9657C6.25265 27.9314 0 21.6787 0 13.9657Z" fill="#E8C56B"/>
<path fill-rule="evenodd" clip-rule="evenodd" d="M15.1802 10.3843L23.4775 7.97852L21.4123 16.3671L18.8359 13.8938L14.6801 18.2227C14.5391 18.3697 14.3441 18.4528 14.1404 18.4528C13.9367 18.4528 13.7418 18.3697 13.6007 18.2227L10.5492 15.0441L6.06131 19.7191C5.77516 20.0171 5.30155 20.0268 5.00347 19.7407C4.7054 19.4545 4.69573 18.9809 4.98189 18.6828L10.0095 13.4457C10.1506 13.2987 10.3455 13.2156 10.5492 13.2156C10.753 13.2156 10.9479 13.2987 11.089 13.4457L14.1404 16.6243L17.7565 12.8575L15.1802 10.3843Z" fill="white"/>
</svg>
