<svg width="226" height="199" viewBox="0 0 226 199" fill="none" xmlns="http://www.w3.org/2000/svg">
<rect width="225.991" height="198.872" rx="99.4362" fill="white"/>
<path d="M150.661 117.291V71.8292C150.661 67.3094 146.97 63.9572 142.488 64.3338H142.262C134.352 65.0118 122.337 69.042 115.632 73.2605L114.992 73.6748C113.9 74.3528 112.092 74.3528 111 73.6748L110.058 73.1098C103.353 68.929 91.376 64.9365 83.4663 64.2962C78.9841 63.9195 75.3306 67.3094 75.3306 71.7916V117.291C75.3306 120.907 78.2685 124.297 81.8843 124.749L82.9766 124.9C91.15 125.992 103.768 130.135 111 134.09L111.15 134.165C112.167 134.73 113.787 134.73 114.766 134.165C121.998 130.173 134.653 125.992 142.864 124.9L144.107 124.749C147.723 124.297 150.661 120.907 150.661 117.291Z" stroke="#292D32" stroke-width="2.7119" stroke-linecap="round" stroke-linejoin="round"/>
<path d="M112.996 74.916V131.414" stroke="#292D32" stroke-width="2.7119" stroke-linecap="round" stroke-linejoin="round"/>
<path d="M96.9879 86.2168H88.5132" stroke="#292D32" stroke-width="2.7119" stroke-linecap="round" stroke-linejoin="round"/>
<path d="M99.8128 97.5156H88.5132" stroke="#292D32" stroke-width="2.7119" stroke-linecap="round" stroke-linejoin="round"/>
</svg>
