<svg width="40" height="28" viewBox="0 0 40 28" fill="none" xmlns="http://www.w3.org/2000/svg">
<path d="M0 13.9657C0 6.25265 6.25265 0 13.9657 0H25.9363C33.6493 0 39.902 6.25265 39.902 13.9657C39.902 21.6787 33.6493 27.9314 25.9363 27.9314H13.9657C6.25265 27.9314 0 21.6787 0 13.9657Z" fill="#E8C56B"/>
<path fill-rule="evenodd" clip-rule="evenodd" d="M20.6316 10.3862L28.9289 7.98047L26.8637 16.369L24.2874 13.8957L20.1316 18.2247C19.9905 18.3717 19.7956 18.4547 19.5918 18.4547C19.3881 18.4547 19.1932 18.3717 19.0521 18.2247L16.0007 15.0461L11.5127 19.721C11.2266 20.0191 10.753 20.0288 10.4549 19.7426C10.1568 19.4565 10.1471 18.9828 10.4333 18.6848L15.4609 13.4476C15.602 13.3007 15.7969 13.2176 16.0007 13.2176C16.2044 13.2176 16.3993 13.3007 16.5404 13.4476L19.5918 16.6262L23.2079 12.8595L20.6316 10.3862Z" fill="white"/>
</svg>
