<svg width="84" height="58" viewBox="0 0 84 58" fill="none" xmlns="http://www.w3.org/2000/svg">
<path d="M47.4744 33.1508C46.9299 38.9941 44.412 44.3254 40.4117 48.105C36.4115 51.8846 31.2157 53.8414 25.8376 53.5939C20.4596 53.3464 15.2849 50.9123 11.3227 46.7663C7.36059 42.6203 4.89508 37.0596 4.40702 31.1688C3.91897 25.278 5.44336 19.4793 8.68292 14.9037C11.9225 10.3282 16.6449 7.30372 21.9293 6.42023C27.2136 5.53674 32.681 6.85756 37.2651 10.1251C41.8492 13.3926 45.2681 20.5588 46.7707 26.28L36.2049 27.0258C35.4632 24.2018 33.7987 21.7437 31.536 20.1308C29.2732 18.518 26.5745 17.866 23.9662 18.3021C21.3578 18.7382 19.0268 20.2311 17.4278 22.4896C15.8287 24.7481 15.0763 27.6103 15.3172 30.518C15.5581 33.4258 16.7751 36.1705 18.7308 38.217C20.6865 40.2634 23.2407 41.4649 25.8954 41.5871C28.55 41.7093 31.1146 40.7434 33.0891 38.8778C35.0637 37.0122 36.4076 35.6887 36.6764 32.8044L47.4744 33.1508Z" fill="#DF4623"/>
<path d="M35.9626 26.3354C36.1823 20.4801 38.3613 15.0468 42.0748 11.0952C45.7883 7.14361 50.7699 4.95702 56.0482 4.96185C61.3265 4.96669 66.5229 7.16262 70.6241 11.1214C74.7253 15.0801 77.4371 20.5179 78.2308 26.3741C79.0245 32.2304 77.8431 38.0853 74.917 42.7969C71.991 47.5086 67.53 50.7392 62.4041 51.8587C57.2782 52.9782 51.855 51.9064 47.192 48.8522C42.529 45.7981 38.7977 38.8012 37.0199 33.1598L47.3236 31.9399C48.2011 34.7245 49.9625 37.1024 52.2641 38.6099C54.5658 40.1175 57.2427 40.6465 59.7728 40.0939C62.303 39.5413 64.5049 37.9467 65.9492 35.621C67.3935 33.2954 67.9767 30.4054 67.5849 27.5147C67.1931 24.6241 65.8546 21.94 63.8302 19.986C61.8059 18.0319 59.2409 16.948 56.6355 16.9456C54.0302 16.9432 51.5713 18.0225 49.7383 19.973C47.9053 21.9236 46.6606 23.3047 46.5521 26.1949L35.9626 26.3354Z" fill="#DF4623"/>
</svg>
