<svg width="30" height="30" viewBox="0 0 30 30" fill="none" xmlns="http://www.w3.org/2000/svg">
<rect width="30" height="30" rx="15" fill="#E8C56B"/>
<path d="M15.4192 21.32C16.2126 21.2267 16.8126 20.9667 17.2192 20.54C17.6326 20.1133 17.8392 19.5633 17.8392 18.89C17.8392 18.6033 17.7859 18.3533 17.6792 18.14C17.5726 17.9267 17.4259 17.74 17.2392 17.58C17.0592 17.42 16.8426 17.2833 16.5892 17.17C16.3359 17.05 16.0626 16.94 15.7692 16.84L15.4192 21.32ZM14.9292 10.31C14.5292 10.35 14.1859 10.4333 13.8992 10.56C13.6126 10.68 13.3759 10.83 13.1892 11.01C13.0026 11.1833 12.8659 11.38 12.7792 11.6C12.6926 11.82 12.6492 12.0533 12.6492 12.3C12.6492 12.58 12.6992 12.8267 12.7992 13.04C12.8992 13.2533 13.0359 13.4433 13.2092 13.61C13.3892 13.77 13.5992 13.9133 13.8392 14.04C14.0792 14.16 14.3392 14.2733 14.6192 14.38L14.9292 10.31ZM15.9292 14.8C16.4092 14.9467 16.8826 15.11 17.3492 15.29C17.8226 15.4633 18.2459 15.69 18.6192 15.97C18.9926 16.2433 19.2926 16.5867 19.5192 17C19.7526 17.4133 19.8692 17.93 19.8692 18.55C19.8692 19.1567 19.7659 19.73 19.5592 20.27C19.3592 20.8033 19.0626 21.2767 18.6692 21.69C18.2759 22.0967 17.7926 22.43 17.2192 22.69C16.6526 22.9433 16.0059 23.0933 15.2792 23.14L15.1592 24.74C15.1526 24.88 15.0959 25.0067 14.9892 25.12C14.8826 25.24 14.7459 25.3 14.5792 25.3H13.7792L13.9492 23.11C13.1626 23.0167 12.4292 22.81 11.7492 22.49C11.0759 22.1633 10.4992 21.7567 10.0192 21.27L10.6692 20.28C10.7292 20.1933 10.8059 20.1233 10.8992 20.07C10.9992 20.01 11.1059 19.98 11.2192 19.98C11.3592 19.98 11.5092 20.0367 11.6692 20.15C11.8359 20.2633 12.0292 20.3967 12.2492 20.55C12.4692 20.6967 12.7292 20.8433 13.0292 20.99C13.3292 21.13 13.6826 21.2333 14.0892 21.3L14.4592 16.45C13.9926 16.31 13.5292 16.1533 13.0692 15.98C12.6159 15.8 12.2059 15.5633 11.8392 15.27C11.4792 14.9767 11.1859 14.61 10.9592 14.17C10.7392 13.73 10.6292 13.1767 10.6292 12.51C10.6292 12.01 10.7259 11.5233 10.9192 11.05C11.1192 10.5767 11.4059 10.1567 11.7792 9.79C12.1592 9.41667 12.6259 9.11333 13.1792 8.88C13.7326 8.64 14.3659 8.50333 15.0792 8.47L15.1792 7.13C15.1859 6.98333 15.2426 6.85333 15.3492 6.74C15.4559 6.62667 15.5926 6.57 15.7592 6.57H16.5592L16.4092 8.53C17.1092 8.63 17.7159 8.82333 18.2292 9.11C18.7426 9.39 19.1892 9.71667 19.5692 10.09L19.0492 10.89C18.9026 11.1233 18.7226 11.24 18.5092 11.24C18.4092 11.24 18.2892 11.2033 18.1492 11.13C18.0159 11.0567 17.8559 10.97 17.6692 10.87C17.4892 10.77 17.2826 10.67 17.0492 10.57C16.8159 10.47 16.5559 10.3933 16.2692 10.34L15.9292 14.8Z" fill="white"/>
</svg>
