<svg width="52" height="52" viewBox="0 0 52 52" fill="none" xmlns="http://www.w3.org/2000/svg">
<rect width="52" height="52" rx="8" fill="#E8C56B"/>
<path d="M26.37 16.1501L35.37 19.7501C35.72 19.8901 36 20.3101 36 20.6801V24.0001C36 24.5501 35.55 25.0001 35 25.0001H17C16.45 25.0001 16 24.5501 16 24.0001V20.6801C16 20.3101 16.28 19.8901 16.63 19.7501L25.63 16.1501C25.83 16.0701 26.17 16.0701 26.37 16.1501Z" stroke="white" stroke-width="1.5" stroke-miterlimit="10" stroke-linecap="round" stroke-linejoin="round"/>
<path d="M36 36H16V33C16 32.45 16.45 32 17 32H35C35.55 32 36 32.45 36 33V36Z" stroke="white" stroke-width="1.5" stroke-miterlimit="10" stroke-linecap="round" stroke-linejoin="round"/>
<path d="M18 32V25" stroke="white" stroke-width="1.5" stroke-miterlimit="10" stroke-linecap="round" stroke-linejoin="round"/>
<path d="M22 32V25" stroke="white" stroke-width="1.5" stroke-miterlimit="10" stroke-linecap="round" stroke-linejoin="round"/>
<path d="M26 32V25" stroke="white" stroke-width="1.5" stroke-miterlimit="10" stroke-linecap="round" stroke-linejoin="round"/>
<path d="M30 32V25" stroke="white" stroke-width="1.5" stroke-miterlimit="10" stroke-linecap="round" stroke-linejoin="round"/>
<path d="M34 32V25" stroke="white" stroke-width="1.5" stroke-miterlimit="10" stroke-linecap="round" stroke-linejoin="round"/>
<path d="M15 36H37" stroke="white" stroke-width="1.5" stroke-miterlimit="10" stroke-linecap="round" stroke-linejoin="round"/>
<path d="M26 22.5C26.8284 22.5 27.5 21.8284 27.5 21C27.5 20.1716 26.8284 19.5 26 19.5C25.1716 19.5 24.5 20.1716 24.5 21C24.5 21.8284 25.1716 22.5 26 22.5Z" stroke="white" stroke-width="1.5" stroke-miterlimit="10" stroke-linecap="round" stroke-linejoin="round"/>
</svg>
