<svg width="52" height="52" viewBox="0 0 52 52" fill="none" xmlns="http://www.w3.org/2000/svg">
<rect width="52" height="52" rx="8" fill="#E8C56B"/>
<path d="M36 25.89V26.78C36 30.34 35.11 31.22 31.56 31.22H20.44C16.89 31.22 16 30.33 16 26.78V20.44C16 16.89 16.89 16 20.44 16H22" stroke="white" stroke-width="1.5" stroke-linecap="round" stroke-linejoin="round"/>
<path d="M26 31.22V36" stroke="white" stroke-width="1.5" stroke-linecap="round" stroke-linejoin="round"/>
<path d="M16 27H36" stroke="white" stroke-width="1.5" stroke-linecap="round" stroke-linejoin="round"/>
<path d="M21.5 36H30.5" stroke="white" stroke-width="1.5" stroke-linecap="round" stroke-linejoin="round"/>
<path d="M31.86 23.37H27.1C25.72 23.37 25.26 22.45 25.26 21.53V18.01C25.26 16.91 26.16 16.01 27.26 16.01H31.86C32.88 16.01 33.7 16.83 33.7 17.85V21.53C33.7 22.55 32.88 23.37 31.86 23.37Z" stroke="white" stroke-width="1.5" stroke-linecap="round" stroke-linejoin="round"/>
<path d="M34.91 21.92L33.7 21.07V18.31L34.91 17.46C35.51 17.05 36 17.3 36 18.03V21.36C36 22.09 35.51 22.34 34.91 21.92Z" stroke="white" stroke-width="1.5" stroke-linecap="round" stroke-linejoin="round"/>
</svg>
