<svg width="73" height="18" viewBox="0 0 73 18" fill="none" xmlns="http://www.w3.org/2000/svg">
<path d="M5.625 2.8125C5.625 4.3658 4.3658 5.625 2.8125 5.625C1.2592 5.625 0 4.3658 0 2.8125C0 1.2592 1.2592 0 2.8125 0C4.3658 0 5.625 1.2592 5.625 2.8125Z" fill="#4977E6"/>
<path d="M5.625 9C5.625 10.5533 4.3658 11.8125 2.8125 11.8125C1.2592 11.8125 0 10.5533 0 9C0 7.4467 1.2592 6.1875 2.8125 6.1875C4.3658 6.1875 5.625 7.4467 5.625 9Z" fill="#4977E6"/>
<path d="M11.8125 9C11.8125 10.5533 10.5533 11.8125 9 11.8125C7.4467 11.8125 6.1875 10.5533 6.1875 9C6.1875 7.4467 7.4467 6.1875 9 6.1875C10.5533 6.1875 11.8125 7.4467 11.8125 9Z" fill="#4977E6"/>
<path d="M5.625 15.1875C5.625 16.7408 4.3658 18 2.8125 18C1.2592 18 0 16.7408 0 15.1875C0 13.6342 1.2592 12.375 2.8125 12.375C4.3658 12.375 5.625 13.6342 5.625 15.1875Z" fill="#4977E6"/>
<path d="M11.8125 15.1875C11.8125 16.7408 10.5533 18 9 18C7.4467 18 6.1875 16.7408 6.1875 15.1875C6.1875 13.6342 7.4467 12.375 9 12.375C10.5533 12.375 11.8125 13.6342 11.8125 15.1875Z" fill="#4977E6"/>
<path d="M18 15.1875C18 16.7408 16.7408 18 15.1875 18C13.6342 18 12.375 16.7408 12.375 15.1875C12.375 13.6342 13.6342 12.375 15.1875 12.375C16.7408 12.375 18 13.6342 18 15.1875Z" fill="#E8C56B"/>
<path d="M24.58 17.16C23.7333 17.16 23.08 16.9233 22.62 16.45C22.1667 15.97 21.94 15.2967 21.94 14.43V8.49H20.82C20.7 8.49 20.5967 8.45333 20.51 8.38C20.4233 8.3 20.38 8.18333 20.38 8.03V7.16L22.03 6.92L22.5 3.97C22.5333 3.85667 22.59 3.76667 22.67 3.7C22.75 3.62667 22.8567 3.59 22.99 3.59H24.09V6.94H26.92V8.49H24.09V14.28C24.09 14.6467 24.18 14.9267 24.36 15.12C24.54 15.3133 24.78 15.41 25.08 15.41C25.2467 15.41 25.39 15.39 25.51 15.35C25.63 15.3033 25.7333 15.2567 25.82 15.21C25.9067 15.1567 25.98 15.11 26.04 15.07C26.1067 15.0233 26.17 15 26.23 15C26.35 15 26.4467 15.0667 26.52 15.2L27.16 16.25C26.8267 16.5433 26.4333 16.77 25.98 16.93C25.5267 17.0833 25.06 17.16 24.58 17.16Z" fill="#101A33"/>
<path d="M37.2147 6.8V17H35.9147C35.628 17 35.4447 16.8633 35.3647 16.59L35.2047 15.64C34.9914 15.8667 34.7647 16.0733 34.5247 16.26C34.2914 16.4467 34.0414 16.6067 33.7747 16.74C33.508 16.8733 33.2214 16.9767 32.9147 17.05C32.6147 17.1233 32.2914 17.16 31.9447 17.16C31.3847 17.16 30.8914 17.0667 30.4647 16.88C30.038 16.6933 29.678 16.43 29.3847 16.09C29.098 15.75 28.8814 15.3433 28.7347 14.87C28.588 14.39 28.5147 13.8633 28.5147 13.29V6.8H30.6647V13.29C30.6647 13.9767 30.8214 14.51 31.1347 14.89C31.4547 15.27 31.938 15.46 32.5847 15.46C33.058 15.46 33.498 15.3533 33.9047 15.14C34.318 14.92 34.7047 14.62 35.0647 14.24V6.8H37.2147Z" fill="#101A33"/>
<path d="M43.0956 17.16C42.249 17.16 41.5956 16.9233 41.1356 16.45C40.6823 15.97 40.4556 15.2967 40.4556 14.43V8.49H39.3356C39.2156 8.49 39.1123 8.45333 39.0256 8.38C38.939 8.3 38.8956 8.18333 38.8956 8.03V7.16L40.5456 6.92L41.0156 3.97C41.049 3.85667 41.1056 3.76667 41.1856 3.7C41.2656 3.62667 41.3723 3.59 41.5056 3.59H42.6056V6.94H45.4356V8.49H42.6056V14.28C42.6056 14.6467 42.6956 14.9267 42.8756 15.12C43.0556 15.3133 43.2956 15.41 43.5956 15.41C43.7623 15.41 43.9056 15.39 44.0256 15.35C44.1456 15.3033 44.249 15.2567 44.3356 15.21C44.4223 15.1567 44.4956 15.11 44.5556 15.07C44.6223 15.0233 44.6856 15 44.7456 15C44.8656 15 44.9623 15.0667 45.0356 15.2L45.6756 16.25C45.3423 16.5433 44.949 16.77 44.4956 16.93C44.0423 17.0833 43.5756 17.16 43.0956 17.16Z" fill="#101A33"/>
<path d="M53.7422 10.75C53.7422 10.39 53.6889 10.0567 53.5822 9.75C53.4822 9.43667 53.3322 9.16667 53.1322 8.94C52.9322 8.70667 52.6822 8.52667 52.3822 8.4C52.0889 8.26667 51.7489 8.2 51.3622 8.2C50.5822 8.2 49.9689 8.42333 49.5222 8.87C49.0755 9.31667 48.7922 9.94333 48.6722 10.75H53.7422ZM48.6122 12.07C48.6389 12.65 48.7289 13.1533 48.8822 13.58C49.0355 14 49.2389 14.35 49.4922 14.63C49.7522 14.91 50.0589 15.12 50.4122 15.26C50.7722 15.3933 51.1722 15.46 51.6122 15.46C52.0322 15.46 52.3955 15.4133 52.7022 15.32C53.0089 15.22 53.2755 15.1133 53.5022 15C53.7289 14.88 53.9222 14.7733 54.0822 14.68C54.2422 14.58 54.3889 14.53 54.5222 14.53C54.6955 14.53 54.8289 14.5967 54.9222 14.73L55.5322 15.52C55.2789 15.82 54.9922 16.0733 54.6722 16.28C54.3522 16.4867 54.0122 16.6567 53.6522 16.79C53.2922 16.9167 52.9222 17.0067 52.5422 17.06C52.1622 17.12 51.7922 17.15 51.4322 17.15C50.7255 17.15 50.0689 17.0333 49.4622 16.8C48.8622 16.56 48.3389 16.21 47.8922 15.75C47.4522 15.29 47.1055 14.72 46.8522 14.04C46.6055 13.36 46.4822 12.5767 46.4822 11.69C46.4822 10.9833 46.5922 10.3233 46.8122 9.71C47.0389 9.09667 47.3589 8.56333 47.7722 8.11C48.1922 7.65667 48.6989 7.3 49.2922 7.04C49.8922 6.77333 50.5689 6.64 51.3222 6.64C51.9489 6.64 52.5289 6.74333 53.0622 6.95C53.5955 7.15 54.0555 7.44667 54.4422 7.84C54.8289 8.23333 55.1289 8.71667 55.3422 9.29C55.5622 9.85667 55.6722 10.5033 55.6722 11.23C55.6722 11.5633 55.6355 11.7867 55.5622 11.9C55.4889 12.0133 55.3555 12.07 55.1622 12.07H48.6122Z" fill="#101A33"/>
<path d="M59.7072 8.69C60.0272 8.04333 60.4139 7.53667 60.8672 7.17C61.3205 6.79667 61.8639 6.61 62.4972 6.61C62.7172 6.61 62.9239 6.63667 63.1172 6.69C63.3105 6.73667 63.4839 6.81 63.6372 6.91L63.4872 8.53C63.4605 8.64333 63.4172 8.72333 63.3572 8.77C63.3039 8.81 63.2305 8.83 63.1372 8.83C63.0372 8.83 62.8939 8.81333 62.7072 8.78C62.5205 8.74 62.3239 8.72 62.1172 8.72C61.8172 8.72 61.5505 8.76333 61.3172 8.85C61.0905 8.93667 60.8839 9.06333 60.6972 9.23C60.5172 9.39667 60.3572 9.6 60.2172 9.84C60.0772 10.08 59.9472 10.3533 59.8272 10.66V17H57.6772V6.8H58.9272C59.1539 6.8 59.3105 6.84333 59.3972 6.93C59.4839 7.01 59.5439 7.15333 59.5772 7.36L59.7072 8.69Z" fill="#101A33"/>
<path d="M70.3538 12.54C69.5871 12.5667 68.9404 12.63 68.4137 12.73C67.8871 12.8233 67.4604 12.9467 67.1338 13.1C66.8071 13.2467 66.5704 13.4233 66.4238 13.63C66.2838 13.8367 66.2138 14.0633 66.2138 14.31C66.2138 14.55 66.2504 14.7567 66.3238 14.93C66.4038 15.0967 66.5104 15.2367 66.6438 15.35C66.7838 15.4567 66.9437 15.5367 67.1237 15.59C67.3104 15.6367 67.5137 15.66 67.7337 15.66C68.2937 15.66 68.7738 15.5567 69.1738 15.35C69.5804 15.1367 69.9738 14.83 70.3538 14.43V12.54ZM64.6537 8.22C65.8071 7.14667 67.1804 6.61 68.7738 6.61C69.3604 6.61 69.8804 6.70667 70.3337 6.9C70.7937 7.08667 71.1771 7.35333 71.4837 7.7C71.7971 8.04667 72.0337 8.46 72.1937 8.94C72.3604 9.41333 72.4437 9.94 72.4437 10.52V17H71.4837C71.2771 17 71.1204 16.97 71.0137 16.91C70.9071 16.8433 70.8171 16.7133 70.7438 16.52L70.5338 15.69C70.2738 15.9233 70.0171 16.1333 69.7637 16.32C69.5104 16.5 69.2471 16.6533 68.9737 16.78C68.7071 16.9067 68.4171 17 68.1038 17.06C67.7971 17.1267 67.4571 17.16 67.0837 17.16C66.6704 17.16 66.2838 17.1033 65.9238 16.99C65.5704 16.8767 65.2638 16.7067 65.0038 16.48C64.7438 16.2467 64.5371 15.96 64.3838 15.62C64.2371 15.28 64.1637 14.88 64.1637 14.42C64.1637 14.0267 64.2671 13.6433 64.4737 13.27C64.6871 12.8967 65.0337 12.5633 65.5137 12.27C66.0004 11.97 66.6371 11.7233 67.4238 11.53C68.2171 11.3367 69.1937 11.2267 70.3538 11.2V10.52C70.3538 9.78667 70.1971 9.24 69.8838 8.88C69.5704 8.52 69.1104 8.34 68.5038 8.34C68.0904 8.34 67.7438 8.39333 67.4638 8.5C67.1838 8.6 66.9404 8.71 66.7337 8.83C66.5271 8.95 66.3438 9.06333 66.1837 9.17C66.0237 9.27 65.8538 9.32 65.6738 9.32C65.5271 9.32 65.4004 9.28333 65.2937 9.21C65.1937 9.13 65.1104 9.03333 65.0437 8.92L64.6537 8.22Z" fill="#101A33"/>
</svg>
