<svg width="20" height="18" viewBox="0 0 20 18" fill="none" xmlns="http://www.w3.org/2000/svg">
<path d="M18.5723 17.2227V17.332C18.5723 17.3562 18.5623 17.3839 18.5381 17.4072C18.5132 17.4311 18.4749 17.4473 18.4316 17.4473H0.639648C0.596587 17.4472 0.559002 17.431 0.53418 17.4072C0.509959 17.3839 0.5 17.3562 0.5 17.332V17.2227H18.5723ZM15.5498 7.45605C15.6446 7.48658 15.7404 7.51378 15.8369 7.53906C15.8551 7.68513 15.8696 7.83158 15.877 7.97852L15.8838 8.23438V11.29L15.8857 11.3096C15.9713 12.4108 16.2845 13.4841 16.8066 14.4658L16.8184 14.4883L16.833 14.5098C17.3074 15.2152 17.8783 15.855 18.5293 16.4131L18.5322 16.416C18.5463 16.428 18.5561 16.4416 18.5625 16.4551L18.5723 16.4961V16.8301L18.0615 16.3564C17.5005 15.8352 17.007 15.2517 16.5898 14.6191C16.0857 13.7058 15.7651 12.7118 15.6436 11.6885L15.6035 11.2461V8.2373C15.6036 7.97565 15.5851 7.71467 15.5498 7.45605ZM3.16211 8.22949C3.15842 6.74988 3.71212 5.31563 4.72461 4.19238C5.73753 3.06881 7.1423 2.33184 8.68164 2.12305L9.11426 2.06445V0.821289C9.11433 0.742562 9.14658 0.662469 9.21094 0.600586C9.27601 0.538058 9.36863 0.500013 9.46875 0.5C9.56886 0.5 9.66148 0.538077 9.72656 0.600586C9.79092 0.662469 9.82317 0.742562 9.82324 0.821289V2.03906L10.2617 2.09277C10.8435 2.16474 11.4113 2.31454 11.9482 2.53711V2.61523C11.9498 2.66708 11.9538 2.71878 11.957 2.77051C11.206 2.456 10.3933 2.29165 9.56836 2.29102H9.56738C8.76363 2.29276 7.96732 2.44694 7.22461 2.74512C6.48202 3.04325 5.80638 3.47945 5.2373 4.03027C4.66811 4.58131 4.21642 5.23668 3.90918 5.95801C3.64041 6.58906 3.4868 7.2597 3.45508 7.94043L3.44922 8.23047V11.2568C3.37438 12.4318 3.03688 13.5777 2.46191 14.6191C2.04485 15.2515 1.55214 15.8354 0.991211 16.3564L0.5 16.8125V16.4961C0.500018 16.4827 0.503366 16.4687 0.509766 16.4551C0.516171 16.4416 0.52593 16.428 0.540039 16.416L0.545898 16.4102C1.18737 15.8504 1.74884 15.2106 2.21484 14.5068L2.22852 14.4863L2.24023 14.4658C2.76235 13.4841 3.0756 12.4108 3.16113 11.3096L3.16211 11.29V8.22949Z" fill="#101A33" stroke="black"/>
</svg>
