<svg width="50" height="50" viewBox="0 0 50 50" fill="none" xmlns="http://www.w3.org/2000/svg">
<rect width="50" height="50" rx="25" fill="#E1E1E1"/>
<path d="M25 28.75C27.0711 28.75 28.75 27.0711 28.75 25C28.75 22.9289 27.0711 21.25 25 21.25C22.9289 21.25 21.25 22.9289 21.25 25C21.25 27.0711 22.9289 28.75 25 28.75Z" stroke="#292D32" stroke-width="1.5" stroke-miterlimit="10" stroke-linecap="round" stroke-linejoin="round"/>
<path d="M12.5 26.0998V23.8998C12.5 22.5998 13.5625 21.5248 14.875 21.5248C17.1375 21.5248 18.0625 19.9248 16.925 17.9623C16.275 16.8373 16.6625 15.3748 17.8 14.7248L19.9625 13.4873C20.95 12.8998 22.225 13.2498 22.8125 14.2373L22.95 14.4748C24.075 16.4373 25.925 16.4373 27.0625 14.4748L27.2 14.2373C27.7875 13.2498 29.0625 12.8998 30.05 13.4873L32.2125 14.7248C33.35 15.3748 33.7375 16.8373 33.0875 17.9623C31.95 19.9248 32.875 21.5248 35.1375 21.5248C36.4375 21.5248 37.5125 22.5873 37.5125 23.8998V26.0998C37.5125 27.3998 36.45 28.4748 35.1375 28.4748C32.875 28.4748 31.95 30.0748 33.0875 32.0373C33.7375 33.1748 33.35 34.6248 32.2125 35.2748L30.05 36.5123C29.0625 37.0998 27.7875 36.7498 27.2 35.7623L27.0625 35.5248C25.9375 33.5623 24.0875 33.5623 22.95 35.5248L22.8125 35.7623C22.225 36.7498 20.95 37.0998 19.9625 36.5123L17.8 35.2748C16.6625 34.6248 16.275 33.1623 16.925 32.0373C18.0625 30.0748 17.1375 28.4748 14.875 28.4748C13.5625 28.4748 12.5 27.3998 12.5 26.0998Z" stroke="#292D32" stroke-width="1.5" stroke-miterlimit="10" stroke-linecap="round" stroke-linejoin="round"/>
</svg>
