<svg width="104" height="31" viewBox="0 0 104 31" fill="none" xmlns="http://www.w3.org/2000/svg">
<path d="M9.625 6.8125C9.625 8.3658 8.3658 9.625 6.8125 9.625C5.2592 9.625 4 8.3658 4 6.8125C4 5.2592 5.2592 4 6.8125 4C8.3658 4 9.625 5.2592 9.625 6.8125Z" fill="#4977E6"/>
<path d="M9.625 13C9.625 14.5533 8.3658 15.8125 6.8125 15.8125C5.2592 15.8125 4 14.5533 4 13C4 11.4467 5.2592 10.1875 6.8125 10.1875C8.3658 10.1875 9.625 11.4467 9.625 13Z" fill="#4977E6"/>
<path d="M15.8125 13C15.8125 14.5533 14.5533 15.8125 13 15.8125C11.4467 15.8125 10.1875 14.5533 10.1875 13C10.1875 11.4467 11.4467 10.1875 13 10.1875C14.5533 10.1875 15.8125 11.4467 15.8125 13Z" fill="#4977E6"/>
<path d="M9.625 19.1875C9.625 20.7408 8.3658 22 6.8125 22C5.2592 22 4 20.7408 4 19.1875C4 17.6342 5.2592 16.375 6.8125 16.375C8.3658 16.375 9.625 17.6342 9.625 19.1875Z" fill="#4977E6"/>
<path d="M15.8125 19.1875C15.8125 20.7408 14.5533 22 13 22C11.4467 22 10.1875 20.7408 10.1875 19.1875C10.1875 17.6342 11.4467 16.375 13 16.375C14.5533 16.375 15.8125 17.6342 15.8125 19.1875Z" fill="#4977E6"/>
<path d="M22 19.1875C22 20.7408 20.7408 22 19.1875 22C17.6342 22 16.375 20.7408 16.375 19.1875C16.375 17.6342 17.6342 16.375 19.1875 16.375C20.7408 16.375 22 17.6342 22 19.1875Z" fill="#E8C56B"/>
<path d="M28.58 21.16C27.7333 21.16 27.08 20.9233 26.62 20.45C26.1667 19.97 25.94 19.2967 25.94 18.43V12.49H24.82C24.7 12.49 24.5967 12.4533 24.51 12.38C24.4233 12.3 24.38 12.1833 24.38 12.03V11.16L26.03 10.92L26.5 7.97C26.5333 7.85667 26.59 7.76667 26.67 7.7C26.75 7.62667 26.8567 7.59 26.99 7.59H28.09V10.94H30.92V12.49H28.09V18.28C28.09 18.6467 28.18 18.9267 28.36 19.12C28.54 19.3133 28.78 19.41 29.08 19.41C29.2467 19.41 29.39 19.39 29.51 19.35C29.63 19.3033 29.7333 19.2567 29.82 19.21C29.9067 19.1567 29.98 19.11 30.04 19.07C30.1067 19.0233 30.17 19 30.23 19C30.35 19 30.4467 19.0667 30.52 19.2L31.16 20.25C30.8267 20.5433 30.4333 20.77 29.98 20.93C29.5267 21.0833 29.06 21.16 28.58 21.16Z" fill="#101A33"/>
<path d="M41.2147 10.8V21H39.9147C39.628 21 39.4447 20.8633 39.3647 20.59L39.2047 19.64C38.9914 19.8667 38.7647 20.0733 38.5247 20.26C38.2914 20.4467 38.0414 20.6067 37.7747 20.74C37.508 20.8733 37.2214 20.9767 36.9147 21.05C36.6147 21.1233 36.2914 21.16 35.9447 21.16C35.3847 21.16 34.8914 21.0667 34.4647 20.88C34.038 20.6933 33.678 20.43 33.3847 20.09C33.098 19.75 32.8814 19.3433 32.7347 18.87C32.588 18.39 32.5147 17.8633 32.5147 17.29V10.8H34.6647V17.29C34.6647 17.9767 34.8214 18.51 35.1347 18.89C35.4547 19.27 35.938 19.46 36.5847 19.46C37.058 19.46 37.498 19.3533 37.9047 19.14C38.318 18.92 38.7047 18.62 39.0647 18.24V10.8H41.2147Z" fill="#101A33"/>
<path d="M47.0956 21.16C46.249 21.16 45.5956 20.9233 45.1356 20.45C44.6823 19.97 44.4556 19.2967 44.4556 18.43V12.49H43.3356C43.2156 12.49 43.1123 12.4533 43.0256 12.38C42.939 12.3 42.8956 12.1833 42.8956 12.03V11.16L44.5456 10.92L45.0156 7.97C45.049 7.85667 45.1056 7.76667 45.1856 7.7C45.2656 7.62667 45.3723 7.59 45.5056 7.59H46.6056V10.94H49.4356V12.49H46.6056V18.28C46.6056 18.6467 46.6956 18.9267 46.8756 19.12C47.0556 19.3133 47.2956 19.41 47.5956 19.41C47.7623 19.41 47.9056 19.39 48.0256 19.35C48.1456 19.3033 48.249 19.2567 48.3356 19.21C48.4223 19.1567 48.4956 19.11 48.5556 19.07C48.6223 19.0233 48.6856 19 48.7456 19C48.8656 19 48.9623 19.0667 49.0356 19.2L49.6756 20.25C49.3423 20.5433 48.949 20.77 48.4956 20.93C48.0423 21.0833 47.5756 21.16 47.0956 21.16Z" fill="#101A33"/>
<path d="M57.7422 14.75C57.7422 14.39 57.6889 14.0567 57.5822 13.75C57.4822 13.4367 57.3322 13.1667 57.1322 12.94C56.9322 12.7067 56.6822 12.5267 56.3822 12.4C56.0889 12.2667 55.7489 12.2 55.3622 12.2C54.5822 12.2 53.9689 12.4233 53.5222 12.87C53.0755 13.3167 52.7922 13.9433 52.6722 14.75H57.7422ZM52.6122 16.07C52.6389 16.65 52.7289 17.1533 52.8822 17.58C53.0355 18 53.2389 18.35 53.4922 18.63C53.7522 18.91 54.0589 19.12 54.4122 19.26C54.7722 19.3933 55.1722 19.46 55.6122 19.46C56.0322 19.46 56.3955 19.4133 56.7022 19.32C57.0089 19.22 57.2755 19.1133 57.5022 19C57.7289 18.88 57.9222 18.7733 58.0822 18.68C58.2422 18.58 58.3889 18.53 58.5222 18.53C58.6955 18.53 58.8289 18.5967 58.9222 18.73L59.5322 19.52C59.2789 19.82 58.9922 20.0733 58.6722 20.28C58.3522 20.4867 58.0122 20.6567 57.6522 20.79C57.2922 20.9167 56.9222 21.0067 56.5422 21.06C56.1622 21.12 55.7922 21.15 55.4322 21.15C54.7255 21.15 54.0689 21.0333 53.4622 20.8C52.8622 20.56 52.3389 20.21 51.8922 19.75C51.4522 19.29 51.1055 18.72 50.8522 18.04C50.6055 17.36 50.4822 16.5767 50.4822 15.69C50.4822 14.9833 50.5922 14.3233 50.8122 13.71C51.0389 13.0967 51.3589 12.5633 51.7722 12.11C52.1922 11.6567 52.6989 11.3 53.2922 11.04C53.8922 10.7733 54.5689 10.64 55.3222 10.64C55.9489 10.64 56.5289 10.7433 57.0622 10.95C57.5955 11.15 58.0555 11.4467 58.4422 11.84C58.8289 12.2333 59.1289 12.7167 59.3422 13.29C59.5622 13.8567 59.6722 14.5033 59.6722 15.23C59.6722 15.5633 59.6355 15.7867 59.5622 15.9C59.4889 16.0133 59.3555 16.07 59.1622 16.07H52.6122Z" fill="#101A33"/>
<path d="M63.7072 12.69C64.0272 12.0433 64.4139 11.5367 64.8672 11.17C65.3205 10.7967 65.8639 10.61 66.4972 10.61C66.7172 10.61 66.9239 10.6367 67.1172 10.69C67.3105 10.7367 67.4839 10.81 67.6372 10.91L67.4872 12.53C67.4605 12.6433 67.4172 12.7233 67.3572 12.77C67.3039 12.81 67.2305 12.83 67.1372 12.83C67.0372 12.83 66.8939 12.8133 66.7072 12.78C66.5205 12.74 66.3239 12.72 66.1172 12.72C65.8172 12.72 65.5505 12.7633 65.3172 12.85C65.0905 12.9367 64.8839 13.0633 64.6972 13.23C64.5172 13.3967 64.3572 13.6 64.2172 13.84C64.0772 14.08 63.9472 14.3533 63.8272 14.66V21H61.6772V10.8H62.9272C63.1539 10.8 63.3105 10.8433 63.3972 10.93C63.4839 11.01 63.5439 11.1533 63.5772 11.36L63.7072 12.69Z" fill="#101A33"/>
<path d="M74.3538 16.54C73.5871 16.5667 72.9404 16.63 72.4137 16.73C71.8871 16.8233 71.4604 16.9467 71.1338 17.1C70.8071 17.2467 70.5704 17.4233 70.4238 17.63C70.2838 17.8367 70.2138 18.0633 70.2138 18.31C70.2138 18.55 70.2504 18.7567 70.3238 18.93C70.4038 19.0967 70.5104 19.2367 70.6438 19.35C70.7838 19.4567 70.9437 19.5367 71.1237 19.59C71.3104 19.6367 71.5137 19.66 71.7337 19.66C72.2937 19.66 72.7738 19.5567 73.1738 19.35C73.5804 19.1367 73.9738 18.83 74.3538 18.43V16.54ZM68.6537 12.22C69.8071 11.1467 71.1804 10.61 72.7738 10.61C73.3604 10.61 73.8804 10.7067 74.3337 10.9C74.7937 11.0867 75.1771 11.3533 75.4837 11.7C75.7971 12.0467 76.0337 12.46 76.1937 12.94C76.3604 13.4133 76.4437 13.94 76.4437 14.52V21H75.4837C75.2771 21 75.1204 20.97 75.0137 20.91C74.9071 20.8433 74.8171 20.7133 74.7438 20.52L74.5338 19.69C74.2738 19.9233 74.0171 20.1333 73.7637 20.32C73.5104 20.5 73.2471 20.6533 72.9737 20.78C72.7071 20.9067 72.4171 21 72.1038 21.06C71.7971 21.1267 71.4571 21.16 71.0837 21.16C70.6704 21.16 70.2838 21.1033 69.9238 20.99C69.5704 20.8767 69.2638 20.7067 69.0038 20.48C68.7438 20.2467 68.5371 19.96 68.3838 19.62C68.2371 19.28 68.1637 18.88 68.1637 18.42C68.1637 18.0267 68.2671 17.6433 68.4737 17.27C68.6871 16.8967 69.0337 16.5633 69.5137 16.27C70.0004 15.97 70.6371 15.7233 71.4238 15.53C72.2171 15.3367 73.1937 15.2267 74.3538 15.2V14.52C74.3538 13.7867 74.1971 13.24 73.8838 12.88C73.5704 12.52 73.1104 12.34 72.5038 12.34C72.0904 12.34 71.7438 12.3933 71.4638 12.5C71.1838 12.6 70.9404 12.71 70.7337 12.83C70.5271 12.95 70.3438 13.0633 70.1837 13.17C70.0237 13.27 69.8538 13.32 69.6738 13.32C69.5271 13.32 69.4004 13.2833 69.2937 13.21C69.1937 13.13 69.1104 13.0333 69.0437 12.92L68.6537 12.22Z" fill="#101A33"/>
</svg>
