<svg width="20" height="20" viewBox="0 0 20 20" fill="none" xmlns="http://www.w3.org/2000/svg">
<rect width="20" height="20" rx="10" fill="#E8C56B"/>
<path fill-rule="evenodd" clip-rule="evenodd" d="M15.3633 5.32241C15.4261 5.37012 15.4789 5.42974 15.5187 5.49788C15.5584 5.56601 15.5844 5.64132 15.595 5.71949C15.6056 5.79766 15.6007 5.87716 15.5806 5.95344C15.5605 6.02971 15.5255 6.10127 15.4777 6.16401L9.07767 14.564C9.02576 14.6321 8.95989 14.6882 8.88449 14.7287C8.80908 14.7692 8.72589 14.7931 8.6405 14.7987C8.5551 14.8044 8.46948 14.7918 8.38938 14.7616C8.30927 14.7315 8.23654 14.6846 8.17607 14.624L4.57607 11.024C4.47009 10.9103 4.41239 10.7598 4.41513 10.6044C4.41788 10.449 4.48084 10.3006 4.59078 10.1907C4.70071 10.0808 4.84901 10.0178 5.00445 10.0151C5.1599 10.0123 5.31033 10.07 5.42407 10.176L8.53927 13.2904L14.5233 5.43681C14.6196 5.31038 14.7621 5.22732 14.9196 5.20587C15.0771 5.18442 15.2367 5.22634 15.3633 5.32241Z" fill="#F6F6F6"/>
</svg>
