<svg width="30" height="30" viewBox="0 0 30 30" fill="none" xmlns="http://www.w3.org/2000/svg">
<path d="M15.6625 25.5246H7.7625C3.8125 25.5246 2.5 22.8996 2.5 20.2621V9.73711C2.5 5.78711 3.8125 4.47461 7.7625 4.47461H15.6625C19.6125 4.47461 20.925 5.78711 20.925 9.73711V20.2621C20.925 24.2121 19.6 25.5246 15.6625 25.5246Z" stroke="#292D32" stroke-width="1.5" stroke-linecap="round" stroke-linejoin="round"/>
<path d="M24.4 21.3742L20.925 18.9367V11.0492L24.4 8.61169C26.1 7.42419 27.5 8.14919 27.5 10.2367V19.7617C27.5 21.8492 26.1 22.5742 24.4 21.3742Z" stroke="#292D32" stroke-width="1.5" stroke-linecap="round" stroke-linejoin="round"/>
<path d="M14.375 13.75C15.4105 13.75 16.25 12.9105 16.25 11.875C16.25 10.8395 15.4105 10 14.375 10C13.3395 10 12.5 10.8395 12.5 11.875C12.5 12.9105 13.3395 13.75 14.375 13.75Z" stroke="#292D32" stroke-width="1.5" stroke-linecap="round" stroke-linejoin="round"/>
</svg>
