<svg width="492" height="492" viewBox="0 0 492 492" fill="none" xmlns="http://www.w3.org/2000/svg">
<path d="M182.135 128.914C182.135 158.307 158.307 182.135 128.914 182.135C99.5203 182.135 75.6924 158.307 75.6924 128.914C75.6924 99.5206 99.5203 75.6926 128.914 75.6926C158.307 75.6926 182.135 99.5206 182.135 128.914Z" fill="#4977E6"/>
<path d="M182.135 246.001C182.135 275.394 158.307 299.222 128.914 299.222C99.5203 299.222 75.6924 275.394 75.6924 246.001C75.6924 216.608 99.5203 192.78 128.914 192.78C158.307 192.78 182.135 216.608 182.135 246.001Z" fill="#4977E6"/>
<path d="M299.223 246.001C299.223 275.394 275.395 299.222 246.001 299.222C216.608 299.222 192.78 275.394 192.78 246.001C192.78 216.608 216.608 192.78 246.001 192.78C275.395 192.78 299.223 216.608 299.223 246.001Z" fill="#4977E6"/>
<path d="M182.135 363.086C182.135 392.479 158.307 416.307 128.914 416.307C99.5203 416.307 75.6924 392.479 75.6924 363.086C75.6924 333.693 99.5203 309.865 128.914 309.865C158.307 309.865 182.135 333.693 182.135 363.086Z" fill="#4977E6"/>
<path d="M299.223 363.086C299.223 392.479 275.395 416.307 246.001 416.307C216.608 416.307 192.78 392.479 192.78 363.086C192.78 333.693 216.608 309.865 246.001 309.865C275.395 309.865 299.223 333.693 299.223 363.086Z" fill="#4977E6"/>
<path d="M416.307 363.086C416.307 392.479 392.479 416.307 363.086 416.307C333.693 416.307 309.865 392.479 309.865 363.086C309.865 333.693 333.693 309.865 363.086 309.865C392.479 309.865 416.307 333.693 416.307 363.086Z" fill="#E8C56B"/>
</svg>

